<svg xmlns="http://www.w3.org/2000/svg" width="860" height="205" viewBox="0 0 860 205">
    <defs>
        <clipPath id="a">
            <path data-name="사각형 1038" transform="translate(.333)" style="fill:none;opacity:.204" d="M0 0h860v205H0z"/>
        </clipPath>
    </defs>
    <g data-name="마스크 그룹 95" transform="translate(-.333)" style="clip-path:url(#a)">
        <g data-name="그룹 196">
            <path data-name="합치기 6" d="M773.694 49.721a10.192 10.192 0 1 1 10.188 10.161 10.177 10.177 0 0 1-10.188-10.161zm1.71 0a8.482 8.482 0 1 0 8.478-8.457 8.471 8.471 0 0 0-8.482 8.457zm-96.388 10.01L704.508 0h73.729l-4.984 11.69h-49.377c-.835 1.977-4 9.4-5.258 12.326h41.11l-4.984 11.7H713.63c-.82 1.975-4 9.4-5.254 12.338h49.365l-4.988 11.677zm-31.8 0-9.59-35.615h19.1c.839-1.968 4.009-9.48 5.273-12.412h-25.007c-1 2.3-20.5 48.026-20.5 48.026h-24.341L617.636 0h66.423l3.251 9.454-7.41 17.368-10.64 8.892h-3.96c1.432 4.451 7.775 24.016 7.775 24.016zm-119.063 0 4.992-11.677h13.5c1.058-2.453 13.9-32.584 15.52-36.364h-13.957L553.192 0h51.3l-4.988 11.69h-12.782c-1.05 2.463-13.9 32.584-15.52 36.364h13.708l-4.977 11.677zm-87.926 0L465.77 0h73.73l-5.281 12.118h-49.35c-.851 1.953-4.009 9.4-5.262 12.318h40.743l-4.969 11.692h-40.758l-10.059 23.6zm-87.153 0 5.5-11.6c2.923 0 46.953-.079 48.862-.079.843-1.985 4.013-9.4 5.262-12.338h-49.363l11.476-26.886L385.233 0H452.3l-5.61 11.69h-48.94c-.835 1.977-4.013 9.4-5.258 12.326h49.564L430.582 50.9l-10.559 8.827zm-88.23 0L270.37 48c2.924 0 46.922.049 48.827.049.847-1.985 4.016-9.4 5.273-12.338h-49.365l11.464-26.883L296.995 0h67.075l-5.625 11.69H309.5c-.831 1.977-4 9.4-5.25 12.326h49.55L342.343 50.9l-10.555 8.827zm-81.349 0-3.084-9.4L198.12 8.808 208.554 0h59.834l3.232 9.392L253.9 50.92l-10.56 8.811zm22.05-11.677h25.215c1.058-2.467 13.9-32.584 15.516-36.364h-25.208c-1.05 2.463-13.896 32.583-15.52 36.363zm-62.36 11.677-9.59-35.631s17.159.019 19.1 0c.839-1.971 4.016-9.477 5.258-12.412h-25c-.984 2.319-20.492 48.041-20.492 48.041H88.105L113.571 0h66.446l3.251 9.454-7.4 17.368-10.652 8.892h-3.958l7.787 24.016zM0 59.731 21.6 8.808 32 0h59.845l3.2 9.454-5.503 13.064H65.185s3.2-7.671 4.543-10.828h-25.2c-1.054 2.463-13.892 32.584-15.516 36.364h25.2c.968-2.256 5.348-11.82 5.348-11.82h24.377L77.383 50.85 66.8 59.731zm786.918-4.038a.732.732 0 0 1-.25-.024.229.229 0 0 1-.144-.135l-2.447-4.7h-1.819v4.654a.181.181 0 0 1-.207.2h-1.417c-.133 0-.187-.071-.187-.2V43.911a.153.153 0 0 1 .055-.132.16.16 0 0 1 .133-.059h3.216a4.231 4.231 0 0 1 2.807.865 3.239 3.239 0 0 1 1.026 2.662 3.69 3.69 0 0 1-.5 1.963 3.234 3.234 0 0 1-1.409 1.207l2.666 5.054c.086.151.016.222-.2.222zm-4.66-6.506h1.3a2.824 2.824 0 0 0 1.679-.455 1.75 1.75 0 0 0 .624-1.506 1.845 1.845 0 0 0-.492-1.375 1.823 1.823 0 0 0-1.3-.455h-1.819z" style="fill:#fff" transform="translate(33.333 73)"/>
        </g>
    </g>
</svg>
