<svg xmlns="http://www.w3.org/2000/svg" width="860" height="205" viewBox="0 0 860 205">
    <defs>
        <clipPath id="clip-path">
            <path id="사각형_1038" data-name="사각형 1038" transform="translate(.333)" style="fill:none;opacity:.204" d="M0 0h860v205H0z"/>
        </clipPath>
        <style>
            .cls-3{fill:#fff}
        </style>
    </defs>
    <g id="그룹_95" data-name="그룹 95" transform="translate(-.333)" style="clip-path:url(#clip-path)">
        <g id="그룹_1326" data-name="그룹 1326" transform="translate(823.639 396.857)">
            <path id="패스_1594" data-name="패스 1594" class="cls-3" d="M-614.2-304.565c-3.324 30.259-35.91 24.938-35.91 24.938V-318.2c16.626 1.329 16.626 16.957 16.626 16.957h4.654v-35.91h-4.654c-1.663 16.625-16.626 15.627-16.626 15.627v-37.24h16.957c2.939.4 6.753 1.471 9.026 3.99 5.222 5.789 7.268 15.473 7.268 15.473h4.986v-42.406h-4.986c-1.33 13.633-10.641 16.958-10.641 16.958-4.936 2.054-13.443 2.968-20.959 2.753v-.576c.834-2.912.94-5.221-.656-8.162-5.957-10.982-21.279 0-21.279 0-14.3 9.975-16.293 41.23-16.293 41.23-1.33 8.313-16.625 9.31-16.625 9.31 16.625 2.993 18.287 10.745 18.287 10.745 4.323 21.716 17.29 31.483 17.29 31.483v2.661h57.856v-29.261zm-60.515-55.2h8.313v37.9s-7.193 1.741-13.058-6.075c.004.01.004-10.208 4.749-31.82zm8.646 76.475s-9.643-9.643-13.3-29.925c0 0 2.328-6.65 13.3-5.985zm11.087-78.462-.115-.008h-17.29a10.056 10.056 0 0 1 10.39-7.6c7.906.412 7.423 6.308 7.019 7.613z"/>
            <path id="패스_1595" data-name="패스 1595" class="cls-3" d="M-562.658-321.345h-24.273s-4.987-1.175-8.313-11.483c0 0-2.327 13.633-14.629 12.635 0 0 9.643 1.871 9.643 10.745v75.373s-4.988 8.8-11.306 10.129h29.082V-275.3h19.13s23.277-2.328 23.277-23.276-22.611-22.769-22.611-22.769zm-3.325 42.383h-16.471v-39.081h17.469s10.315 1.175 10.308 18.964c-.006 15.133-11.306 20.117-11.306 20.117z" transform="translate(4.361 .241)"/>
            <path id="패스_1596" data-name="패스 1596" class="cls-3" d="M-541.377-354.773h39.234l-11.394 8.978v66.256h10.065v4.235h-39.568s12.634-7.038 12.634-9.976v-65.835h-10.971z" transform="translate(.354 2.076)"/>
            <path id="패스_1597" data-name="패스 1597" class="cls-3" d="M-522.592-382.857s-1.828 11.459-13.466 13.288c0 0 10.209 2.163 13.466 12.136 0 0 4.236-10.193 13.467-12.136 0 0-11.656-3.125-13.467-13.288z" transform="translate(.361)"/>
            <path id="패스_1598" data-name="패스 1598" class="cls-3" d="M-479.532-317.533h18.287s4.168-18.075-15.96-20.1a25.5 25.5 0 0 0-10.964 1.573c-4.661 1.718-10.371 8.566-13 14.066-1.973 4.127-12.366 33.6 13.326 45.031 0 0 13.993 4.392 21.561-4.157a38.838 38.838 0 0 0 4.115-6.062c1.169-2.178 2.179-4.636 2.615-5.363-.064-.2-.649-1.637-4.351-.711 0 0-5.329 13.585-15.96 13.721a9.367 9.367 0 0 1-4.771-1.159 12 12 0 0 1-6.2-9.57v-30.926s.678-11.969 12.967-11.638c0 0 7.981.665 3.992 7.98z" transform="translate(.442 .138)"/>
            <path id="패스_1599" data-name="패스 1599" class="cls-3" d="M-446.948-341.376h31.588s21.28-9 20.283-40.33h4.323v40.33h63.507v3.667s-16.534.667-26.509 9.332c0 0-26.2 24.664-39.836 76.992 0 0-4.81 24.64 23.12 27.819 0 0 11.971.155 14.631 0v5.178h-99.419s-6.9-13 6.193-14a6.573 6.573 0 0 1 3.622 1.213c1 .815 2.512 2.859 1.158 4.454-.535.493-1.3.6-2.7.135-.722-.241-1.226-.876-1.837-1.913a2.775 2.775 0 0 0-3.358 1.131 2.258 2.258 0 0 0-.012 2.179 4.012 4.012 0 0 0 1.3 1.752c.732.534 1.511.559 3.062.611 1.251.044 3.371-.018 4.342-.066 3.008-.144 4.337.1 7.987-1.332a15.686 15.686 0 0 0 8.014-6.83s8.069-11.275 14.7-32.331c0 0 4.224-11.535 10.009-24.086a141.119 141.119 0 0 1 7.256-14.014c6.192-10.15 14.761-23.775 17.226-25.628h-24.759s-26.779-1.934-37.086 24.064c0 0-3.148 6-3.148 18h-3.658z" transform="translate(.643)"/>
            <path id="패스_1600" data-name="패스 1600" class="cls-3" d="M-311.754-219.579c.072-6.438-3.788-13.814-8.87-17.214-4.881-3.267-8.416-6-16.55-7.019-19.5-2.436-17.338-14.2-17.338-14.2.628-15.828 14.464-15.2 17.29-14.3a9.513 9.513 0 0 1 4.627 2.757c3.555 3.2 3.368 4.572 3.02 6.885-.672 4.472-7.647 4.656-7.647 4.656v2.992h19.285v-25.936c-4.322 12.636-7.314 9.644-7.314 9.644-4.466-3.99-12.092-5.205-12.092-5.205-17.125-2.787-21.862 3.309-26.146 11.521-4.581 8.782-3.042 18.048 0 24.607 4.623 9.968 15.179 8.547 26.932 11.97s11.424 12.768 11.306 14.629c-.908 14.38-14.773 15.715-14.773 15.715-16.993.978-15.485-11.059-15.485-11.059 9.31 4.987 9.974-9.644 9.974-9.644-23.607-8.644-21.945 8.313-21.945 8.313 3.325 18.62 23.033 17.777 23.033 17.777 35.574 1.412 32.639-22.142 32.693-26.889z" transform="translate(.762 .393)"/>
            <path id="패스_1601" data-name="패스 1601" class="cls-3" d="M-318.6-305.787h46.55v17.093h-3.657s-2.994-11.3-13.3-14.962c0 0-7.316-.334-9.643.332v25.514s9.31.09 10.641-10.551h3.657v25.27h-4.322s-1-10.308-9.976-11.637v26.268s19.95 5.651 23.276-17.29h5.652v26.266h-2.659s-1-5.741-17.29-5.408h-22.919v-51.782s-1.688-5.32-6.009-6.982z" transform="translate(.862 .244)"/>
            <path id="패스_1602" data-name="패스 1602" class="cls-3" d="m-235.476-213.971 15.96-56.014c1.536-3.225 8.645-6.1 8.645-6.1-7.647-2.11-11.637-13.187-11.637-13.187-2.993 12.3-12.636 12.61-12.636 12.61 7.981 1.881 8.646 6.675 8.646 6.675l-9.643 34.912h-1.995l-12.3-37.561h7.316v-3.449h-26.6v3.449h5.922l19.95 58.663z" transform="translate(.989 .393)"/>
            <path id="패스_1603" data-name="패스 1603" class="cls-3" d="M-197.147-278.386s6.5 1.821 10.485-10.884H-183v25.359h-3.325s-3.5-11.816-10.818-11.393v26.357s11.483 3.325 18.466-5.984a34.65 34.65 0 0 0 5.319-10.975h4.656v25.846h-2.661s-1.662-5.9-14.3-6.228h-26.025v-53.955a15.286 15.286 0 0 0-8.888-6.119 15.773 15.773 0 0 0 12.967-12.41s2.993 11.187 10.308 12.41h26.867v17.092h-4.921s-1.664-13.633-13.3-14.751h-8.491z" transform="translate(1.277 .226)"/>
            <path id="패스_1604" data-name="패스 1604" class="cls-3" d="M-101.208-276.083c-9.31.793-16.293 7.851-16.293 7.851v-7.851h-4.656v13.068c-3.989 4.886-7.314 13.071-7.314 13.071l-15.96-26.139h-23.275v2.873h6.65v80.565c.278.859 10.973-10.417 10.973-10.417l-3.327-4.987v-59.187l22.445 36.909a44.753 44.753 0 0 0 9.808 16.356h4.656v-44.286c7.98-16.292 22.278-14.953 22.278-14.953v-2.873zm-20.284 39.283s-4.36-3.258 0-12.478z" transform="translate(1.277 .393)"/>
            <path id="패스_1605" data-name="패스 1605" class="cls-3" d="M-703.306-276.083s9.687-.1 26.641-.28c8.476-.069 18.769-.156 30.576-.255s25.127-.216 39.659-.273l46.924-.238 52.372-.219c18.164-.041 36.934-.083 56.006-.124l57.822-.051 57.822.049 56.006.122 52.374.218 46.923.24c14.532.058 27.852.17 39.659.274l30.576.255 26.641.282-26.641.28c-8.477.071-18.77.156-30.576.256s-25.127.215-39.659.274l-46.923.239-52.374.218-56.006.122-57.822.049c-19.375-.017-38.75-.033-57.822-.051l-56.006-.124c-18.163-.074-35.722-.147-52.372-.218l-46.924-.239c-14.532-.055-27.852-.172-39.659-.273l-30.576-.255c-16.954-.179-26.641-.278-26.641-.278z" transform="translate(0 .221)"/>
        </g>
    </g>
</svg>
