<svg xmlns="http://www.w3.org/2000/svg" width="860" height="205">
    <defs>
        <clipPath id="clip-path">
            <path id="사각형_1038" data-name="사각형 1038" transform="translate(530 438)" style="fill:none;opacity:.204" d="M0 0h860v205H0z"/>
        </clipPath>
        <style>
            .cls-3{fill:#fff}
        </style>
    </defs>
    <g id="마스크_그룹_95" data-name="마스크 그룹 95" transform="translate(-530 -438)" style="clip-path:url(#clip-path)">
        <g id="로스트아크_로고" data-name="로스트아크 로고" transform="translate(515.01 405.266)">
            <path id="패스_626" data-name="패스 626" class="cls-3" d="M1532.476 70.181c5.9 3.139 11.877 6.141 17.614 9.55.977.58 1.256 2.9 1.277 4.428.118 8.431.057 16.864 1.149 26.171l75.115-66.6 1 .748c-9.069 11.953-17.623 24.345-27.348 35.738-9.862 11.555-20.88 22.123-32 33.756l71.264 59.056c-7.269 0-14.946.132-22.612-.122-1.38-.046-2.823-1.546-4.044-2.6-20.448-17.637-40.865-35.309-62.245-53.8v56.314h-26.556c1.731-1.071 2.436-1.58 3.2-1.969 5.313-2.706 7.885-6.539 7.789-12.982-.351-23.69-.1-47.39-.164-71.085-.014-5.57 1.571-11.6-4.669-15.723z" transform="translate(-819.1)"/>
            <path id="패스_627" data-name="패스 627" class="cls-3" d="M194.874 188.6H100.99c2.868-2.585 5.476-5.008 8.164-7.338a11.71 11.71 0 0 0 4.166-9.6c-.121-29.151.2-57.56-.1-86.709-.068-6.523-2.444-13.774-2.649-20.827 2.854 4.069 11.573 16.78 14.349 20.868 4.1 6.353 4.011 9.55 4.011 9.55.3 21.854.277 53.342.506 72.025.161 13.062 2.979 13.515 5.522 13.515 12.245-.015 41.232-.135 45.881-.135 5.891-.094 6.459-2.556 6.459-2.556s1.615 2.29 3.724 5.733c.244.4 3.195 3.934 3.851 5.474z" transform="translate(0 -11.729)"/>
            <path id="패스_628" data-name="패스 628" class="cls-3" d="M613.378 231.678c7.368 2.5 10.718 6.09 21.435 6.09s16.116-2.4 18.428-8.606c2.4-6.436-.586-12.038-5.415-15.267-4.81-3.216-19.178-10.157-27.792-15.065-6.873-3.917-8.842-11.945-7.067-18.913 1.484-5.824 5.569-10.3 10.641-13.58 6.822-4.414 13.442-4.907 21.375-3.585a17.018 17.018 0 0 1 13.762 14.3c-4.993-3.775-7.064-6.211-14.188-7.612-7-1.376-10.47-.048-14.737 1.888-7.217 3.273-9.719 11.428-3.167 15.894 6.392 4.357 15.984 8.936 22.772 12.708 2.167 1.2 4.411 2.271 6.6 3.431 7.864 4.163 12.653 10.43 11.547 19.586s-5.994 16.093-14.842 19.512c-14.085 5.441-31.801.12-39.352-10.781z" transform="translate(-294.119 -68.086)"/>
            <path id="패스_629" data-name="패스 629" class="cls-3" d="M825 291.221c0-3.465-2.162-37.468-2.162-37.468s-1.542-24.836-3.745-47.407c-.383-3.929-3.014-8.5-3.014-8.5s3.106-3.38 3.441-10.5c.3-5.724-.582-12.448-9.5-14.234a57.524 57.524 0 0 0-13.3-1.043c-7.31.269-10.121 3.554-9.758 10.754.165 3.272.748 6.524.222 10.17-5.12-9.76-10.24-20.083-15.906-30.885 7.418 1.005 12.366 1.854 12.366 1.854l21.253 2.862s13.732 1.187 15.833 1.583c1.742 1.449 6.236 8.1 6.693 11.454.031 28.823-.243 59.289-.238 88.111 0 7.74-.153 15.509-.153 23.249-.519-.009-1.501.009-2.032 0z" transform="translate(-385.534 -68.086)"/>
            <path id="패스_630" data-name="패스 630" class="cls-3" d="M399.169 164.628c-25.46-.09-41.527 16.053-41.469 41.662.058 25.491 15.808 41.412 41.1 41.542 25.306.13 41.593-16.2 41.548-41.669-.048-25.347-16.008-41.447-41.179-41.535zm25.578 55.172c-1.772 12.847-11.462 21.376-24.757 21.981-13 .591-24.468-7.317-26.159-20.035a119.614 119.614 0 0 1-.012-31.021c1.674-12.746 12.915-20.513 26.138-20.073 13.132.437 23.009 9.1 24.786 21.956.633 4.577.855 9.211 1.255 13.718-.415 4.595-.642 9.063-1.251 13.474z" transform="translate(-147.652 -69.535)"/>
            <path id="패스_631" data-name="패스 631" class="cls-3" d="M1335.841 208.219c3.743-1.445 6.6-2.34 9.268-3.612 12.4-5.9 14.431-21.883 3.638-30.271-2.893-2.248-6.714-4.313-10.241-4.557-13.846-.957-27.745-1.156-41.625-1.6-.178-.006-.37.464-.985 1.286 5.874 2.87 4.709 8.348 4.719 13.43.028 15.246-.092 30.492.06 45.736.06 6.017.478 11.954-5.741 15.729h18.136c0-10.361-.014-20.423.005-30.486.012-6.019.578-6.689 6.565-5.753a9.143 9.143 0 0 1 5.072 3.29c7.449 9.315 14.635 18.839 22.045 28.185 1.492 1.882 3.454 4.505 5.409 4.7 6.106.612 12.311.225 18.478.225-14.944-9.178-24.014-23.203-34.803-36.302zm-12.717-3.765c-5.781-.1-7.839.461-8.564-1.007-1.848-.51-1.416-2.365-1.486-8.705-.062-5.618.087-11.238-.031-16.853-.063-2.98 1.089-4.2 4.1-4.019 4.117.246 8.291-.079 12.362.448a15.991 15.991 0 0 1 13.185 14.909c-.423 8.044-6.36 14.718-13.616 15.207-1.974.132-3.967.02-5.95.02z" transform="translate(-686.718 -71.577)"/>
            <path id="패스_632" data-name="패스 632" class="cls-3" d="M1115.35 239.852c-5-3.032-12.841-20.66-17.364-31.714-4.413-10.786-14.067-30.57-14.25-44.819-15.353 27.687-31.689 55.862-47.042 83.549.444.32 1.748-.216 2.192.1 2.844-2.708 3.655-2.778 6.01-6.247 4.081-6.012 10.476-14.265 14.558-20.276a8.772 8.772 0 0 1 5.828-3.506c7.091-.428 14.031-.28 21.134-.28 3.824-.407 4.4 1.529 5.218 3.273 2.667 5.663 3.381 9.876 5.926 15.6.807 1.815 1.1 3.349 3.106 5.359 2.173.8 14.493.913 14.493.913a2.041 2.041 0 0 0 .191-1.952zm-52.317-26.152 15.106-27.072 11.284 27.072z" transform="translate(-538.187 -68.782)"/>
            <path id="패스_633" data-name="패스 633" class="cls-3" d="M923.179 291.221c0-3.465 2.161-37.468 2.161-37.468s1.542-24.836 3.745-47.407c.384-3.929 3.014-8.5 3.014-8.5s-3.106-3.38-3.44-10.5c-.3-5.724.582-12.448 9.5-14.234a57.521 57.521 0 0 1 13.3-1.043c7.31.269 10.121 3.554 9.758 10.754-.165 3.272-.747 6.524-.222 10.17 5.12-9.76 10.24-20.083 15.906-30.885-7.418 1.005-12.366 1.854-12.366 1.854l-21.253 2.862s-13.732 1.187-15.833 1.583c-1.742 1.449-6.236 8.1-6.694 11.454-.031 28.823.243 59.289.239 88.111 0 7.74.152 15.509.152 23.249.521-.009 1.503.009 2.033 0z" transform="translate(-471.497 -68.086)"/>
        </g>
    </g>
</svg>
