<svg xmlns="http://www.w3.org/2000/svg" xmlns:xlink="http://www.w3.org/1999/xlink" width="1460" height="680" viewBox="0 0 1460 680">
  <defs>
    <clipPath id="clip-path">
      <rect id="사각형_1222" data-name="사각형 1222" width="1460" height="680" transform="translate(230 225)" fill="red" opacity="0.2"/>
    </clipPath>
  </defs>
  <g id="w_diagram_kr" transform="translate(-230 -225)" clip-path="url(#clip-path)">
    <path id="사각형_1212" data-name="사각형 1212" d="M60,0H870a0,0,0,0,1,0,0V360a0,0,0,0,1,0,0H60A60,60,0,0,1,0,300V60A60,60,0,0,1,60,0Z" transform="translate(300 385)" fill="#bebebe" opacity="0.15"/>
    <path id="패스_1634" data-name="패스 1634" d="M357.3,43.389c14.442-20.868,42.541-20.868,56.984,0L718.147,482.435c18.4,26.592,1.514,65.3-28.492,65.3H81.937c-30.006,0-46.9-38.711-28.492-65.3Z" transform="translate(1717.738 179.204) rotate(90)" fill="#bebebe" opacity="0.15"/>
    <g id="그룹_1332" data-name="그룹 1332" transform="translate(-1.541 -2347.621)">
      <g id="그룹_1331" data-name="그룹 1331" transform="translate(621.54 2572.621)">
        <path id="패스_1575" data-name="패스 1575" d="M-730.441,853.8V659.51c-119.867,2.667-224.431,67.375-282.857,163.3l168.281,97.184A145.72,145.72,0,0,1-730.441,853.8Z" transform="translate(1062.736 -659.51)" fill="#ffd241"/>
        <path id="패스_1576" data-name="패스 1576" d="M-883.593,701.153l17.686,10.214-17.686,10.214Z" transform="translate(1209.045 -612.511)" fill="#ffd241"/>
        <path id="패스_1577" data-name="패스 1577" d="M-842.4,905.852a145.265,145.265,0,0,1,15.879-66.177L-994.8,742.5a338.619,338.619,0,0,0-41.732,163.357A338.632,338.632,0,0,0-994.8,1069.208l168.275-97.182A145.251,145.251,0,0,1-842.4,905.852Z" transform="translate(1036.53 -565.852)" fill="#1eebc8"/>
        <path id="패스_1578" data-name="패스 1578" d="M-982.44,771.531l17.686-10.214v20.428Z" transform="translate(1097.545 -544.608)" fill="#1eebc8"/>
        <path id="패스_1579" data-name="패스 1579" d="M-845.017,856.594-1013.3,953.776c58.426,95.924,162.991,160.634,282.857,163.3V922.784A145.724,145.724,0,0,1-845.017,856.594Z" transform="translate(1062.736 -437.078)" fill="#73dcff"/>
        <path id="패스_1580" data-name="패스 1580" d="M-975.6,895.032V874.6l17.686,10.214Z" transform="translate(1105.256 -416.751)" fill="#73dcff"/>
        <path id="패스_1581" data-name="패스 1581" d="M-873.137,922.784v194.294c119.867-2.667,224.431-67.377,282.857-163.3l-168.279-97.182A145.731,145.731,0,0,1-873.137,922.784Z" transform="translate(1220.839 -437.078)" fill="#9632a5"/>
        <path id="패스_1582" data-name="패스 1582" d="M-860.546,948.154l-17.686-10.214,17.686-10.214Z" transform="translate(1215.093 -356.797)" fill="#9632a5"/>
        <path id="패스_1583" data-name="패스 1583" d="M-799.793,905.852a145.248,145.248,0,0,1-15.877,66.175l168.275,97.182a338.633,338.633,0,0,0,41.732-163.357A338.62,338.62,0,0,0-647.4,742.5l-168.275,97.18A145.263,145.263,0,0,1-799.793,905.852Z" transform="translate(1285.663 -565.852)" fill="#46508c"/>
        <path id="패스_1584" data-name="패스 1584" d="M-761.7,877.775l-17.686,10.214V867.562Z" transform="translate(1326.593 -424.7)" fill="#46508c"/>
        <path id="패스_1585" data-name="패스 1585" d="M-758.559,919.993l168.279-97.184c-58.427-95.924-162.991-160.632-282.857-163.3V853.8A145.727,145.727,0,0,1-758.559,919.993Z" transform="translate(1221.137 -659.51)" fill="#ff5000"/>
        <path id="패스_1586" data-name="패스 1586" d="M-768.536,754.275V774.7l-17.686-10.214Z" transform="translate(1318.881 -552.557)" fill="#ff5000"/>
      </g>
    </g>
    <path id="패스_1639" data-name="패스 1639" d="M-23.062-16.9h7.176v-2.6h-7.176ZM-15.6-2.21c3.146,0,4.862.78,4.862,1.872,0,1.118-1.716,1.846-4.862,1.846S-20.514.78-20.514-.338C-20.514-1.43-18.746-2.21-15.6-2.21Zm11.8-8.45v-2.964H-7.228v-6.63h-3.666v15.08h3.666V-10.66Zm-8.58,2.366c-2.184-.52-4.758-2.158-5.2-4.55h4.55V-15.6H-26.078v2.756h4.6c-.364,2.366-2.626,4.082-5.382,4.836l1.742,2.782c2.418-.7,4.888-2.652,5.642-4.524A9.048,9.048,0,0,0-14.04-5.512ZM-6.968-.338c0-2.886-3.094-4.68-8.632-4.68s-8.658,1.794-8.658,4.68,3.12,4.68,8.658,4.68S-6.968,2.548-6.968-.338ZM-1.2-12.818c0,3.588,2.886,5.9,6.682,5.9,3.822,0,6.76-2.314,6.76-5.9,0-3.536-2.938-5.876-6.76-5.876C1.69-18.694-1.2-16.354-1.2-12.818ZM18.33-20.254H14.69V4.394h3.64ZM13.546-4.6c-1.872.182-4.888.416-8.216.52C2.886-4,.338-4-2.522-4l.416,3.2C.1-.78,3.12-.884,5.824-1.014c2.548-.13,6.136-.442,7.982-.7ZM2.366-12.818a2.952,2.952,0,0,1,3.12-2.964,3,3,0,0,1,3.172,2.964,3.017,3.017,0,0,1-3.172,2.99A2.973,2.973,0,0,1,2.366-12.818ZM21.06,4.966h2.886L26-.78H22.2Zm-23.686,30.9V19.746H-6.318v5.122H-9v2.938h2.678v1.82H-9.126V32.59h2.808v3.276Zm-11.154-4.29c0,.91-.884,1.664-2.288,1.664-1.352,0-2.236-.754-2.236-1.664,0-.884.884-1.664,2.236-1.664C-14.664,29.912-13.78,30.692-13.78,31.576ZM-2.6,44.42V36.854H-19.656v2.86h13.39V44.42Zm-7.54-12.844c0-2.314-2.444-4.212-5.928-4.212-3.458,0-5.876,1.9-5.876,4.212,0,2.366,2.444,4.238,5.876,4.238C-12.584,35.814-10.14,33.942-10.14,31.576Zm.39-4.758V24.01h-13.1v2.808Zm-2.574-3.8V20.24h-6.994v2.782ZM15.964,31.16c-3.094-1.014-5.538-3.354-5.538-7.306V21.436H6.656v2.6a8.183,8.183,0,0,1-5.824,7.9L2.7,34.774c2.34-.754,5.174-3.25,5.9-5.538a10.72,10.72,0,0,0,5.408,4.836ZM21.84,43.8V40.91H8.06V36.048H4.394V43.8Zm-.52-6.162V19.746H17.6V37.634Z" transform="translate(1076 344)" fill="#fff"/>
    <path id="패스_1643" data-name="패스 1643" d="M-42.224-8.788c0-.91.936-1.638,2.314-1.638,1.352,0,2.314.728,2.314,1.638,0,.936-.962,1.638-2.314,1.638C-41.288-7.15-42.224-7.852-42.224-8.788Zm8.242,0c0-2.288-2.418-4.16-5.928-4.16-3.588,0-5.98,1.872-5.98,4.16,0,2.366,2.418,4.212,5.98,4.212C-36.4-4.576-33.982-6.422-33.982-8.788Zm-9.49-8.372h7.41v-2.782h-7.41Zm10.686,3.718V-16.25H-47.164v2.808ZM-31.3,1.352h-9.022V-.884H-31.3Zm3.666,2.834V-3.666h-16.38V4.186Zm3.276-14.326v-2.99h-3.276v-7.124h-3.64v15.6h3.64V-10.14Zm8.346-7.28v2.99h1.2a23.867,23.867,0,0,1-3.3,12.818L-15.288,0a24.777,24.777,0,0,0,3.172-8.476h2.158V3.3h3.38V-19.864h-3.38v8.476h-1.768a46.473,46.473,0,0,0,.1-6.032ZM-1.742,4.394V-20.254H-5.174V4.394Zm-20.8-21.814v2.99h2.288c0,3.458-1.144,8.684-3.3,11.57l2.912,1.586c2.73-4.186,3.9-9.932,3.744-16.146ZM5.174-5.382a2.65,2.65,0,0,1,2.756-2.7,2.679,2.679,0,0,1,2.808,2.7A2.688,2.688,0,0,1,7.93-2.7,2.629,2.629,0,0,1,5.174-5.382Zm-3.25,0c0,3.172,2.6,5.3,6.006,5.3,3.38,0,6.058-2.106,6.058-5.3s-2.678-5.3-6.058-5.3C4.524-10.686,1.924-8.606,1.924-5.382ZM20.2-20.254H16.536V4.394H20.2V-7.254H23.53v-2.99H20.2ZM4.186-15.834h7.592v-2.912H4.186Zm10.79,4.316v-2.86H.65v2.86ZM44.434,3.744V.884H31.174V-3.562H27.482V3.744Zm-.1-14.2v-2.86H31.382v-6.136H27.69v9Zm2.678,5.018V-8.346H24.752v2.912Zm-59.8,38.44v-2.86H-35.048v2.86Zm-.832-6.656c-3.2-.026-6.63-1.17-7.774-2.99H-15V20.5H-32.916v2.86h6.552c-.962,1.794-3.874,2.912-7.748,3.042l1.43,2.834c3.484-.208,7.254-1.482,8.762-3.952,1.638,2.47,5.642,3.77,8.84,3.952Zm-1.3,17.966V41.378H-28.808v-.936h13.234V34.124H-32.422v2.86H-19.24v.962H-32.448v6.37Zm24.284.078V19.746H5.694v9.412H1.326v3.068H5.694V44.394Zm-19.552-22.1v2.99h7.826c-.494,4.732-3.952,9.438-9.334,11.96l2.054,2.86C-1.638,35.71,1.3,29.5,1.508,22.294ZM28.7,41.3h-9.49V38.57H28.7Zm-9.7-16.068c0-1.17,1.872-2.054,4.914-2.054s4.94.884,4.94,2.054c0,1.2-1.872,2.054-4.94,2.054C20.878,27.286,19.006,26.428,19.006,25.232Zm-3.848-.026c0,2.756,3.3,4.784,8.762,4.784,5.434,0,8.788-2.028,8.788-4.784,0-2.782-3.354-4.81-8.788-4.81C18.46,20.4,15.158,22.424,15.158,25.206Zm17.16,18.9V35.814H25.74V33.786h9.308V30.9H12.792v2.886H22.1v2.028H15.574v8.294Z" transform="translate(1076 762)" fill="#fff"/>
    <path id="패스_1638" data-name="패스 1638" d="M-6.968-.494c0-2.834-3.2-4.732-8.554-4.732-5.408,0-8.658,1.9-8.658,4.732,0,2.86,3.25,4.784,8.658,4.784C-10.166,4.29-6.968,2.366-6.968-.494ZM-4.316-6.5V-9.36H-14.534v-4.42h-3.692v4.42h-8.346V-6.5ZM-24.05-19.474v2.834h13.234v.442a22.09,22.09,0,0,1-.624,5.018l3.458.416a34.6,34.6,0,0,0,.806-8.71ZM-10.738-.468c0,1.222-1.846,1.846-4.784,1.846-2.964,0-4.862-.624-4.862-1.846,0-1.248,1.9-1.846,4.862-1.846C-12.584-2.314-10.738-1.716-10.738-.468ZM16.718,4.108V-5.46H.624V4.108ZM-1.768-18.85v3.016H5.85C5.356-12.74,1.508-9.7-3.042-8.788l1.43,2.938c6.968-1.976,11.336-6.162,11.57-13ZM20.15-11.778v-2.99H16.718v-5.486H13.052V-6.63h3.666v-5.148ZM13.078,1.3H4.29v-4h8.788ZM21.06,4.966h2.886L26-.78H22.2Zm-39.988,21.15c0,1.482-1.95,2.678-4.992,2.678-3.094,0-5.044-1.2-5.044-2.678,0-1.43,1.95-2.626,5.044-2.626C-20.878,23.49-18.928,24.686-18.928,26.116Zm-7.436,18.252V36.282h4.784v8.086h3.64V36.282h5.148V33.4H-35.048v2.886h4.966v8.086ZM-15.08,26.116c0-3.25-3.51-5.486-8.84-5.486s-8.892,2.236-8.892,5.486c0,3.328,3.562,5.538,8.892,5.538S-15.08,29.444-15.08,26.116ZM9.88,44.394V19.746H6.4v9.542H4.576V20.162H1.144V43.276H4.576V32.226H6.4V44.394Zm-16.718-18.9h5.694v-2.86H-10.5V38.8h2.678a49.12,49.12,0,0,0,8.138-.65l-.338-2.782a37.714,37.714,0,0,1-6.266.52c-.234,0-.416-.026-.546-.026Zm39,18.616V34.54H16.068v9.568ZM13.676,21.15v3.016h7.618C20.8,27.26,16.952,30.3,12.4,31.212l1.43,2.938c6.968-1.976,11.336-6.162,11.57-13Zm21.918,7.072v-2.99H32.162V19.746H28.5V33.37h3.666V28.222ZM28.522,41.3H19.734v-4h8.788Z" transform="translate(838 344)" fill="#fff"/>
    <path id="패스_1642" data-name="패스 1642" d="M-15.73-20.254h-3.64V4.394h3.64V-8.06h3.406v-2.99H-15.73ZM-30.524-4.212V-15.08H-22.8v-2.964H-34.138v16.9h2.158a71,71,0,0,0,11.362-.832l-.364-2.964a53.065,53.065,0,0,1-8.892.728ZM8.632-9.048V-11.8H-4.524V-12.87H8.294v-6.266H-8.242v2.7H4.628v.962H-8.242v6.422ZM4.732,1.2H-4.81V-.728H4.732ZM8.424,3.978V-3.484H-8.45V3.978Zm2.7-8.84v-2.86H-11.128v2.86Zm4.03-10.608c0,2.522,2.938,4.238,8.762,4.238,5.8,0,8.762-1.716,8.762-4.238s-2.964-4.264-8.762-4.264C18.1-19.734,15.158-17.992,15.158-15.47Zm3.848.026c0-.858,1.586-1.56,4.914-1.56,3.25,0,4.914.7,4.914,1.56,0,.884-1.664,1.56-4.914,1.56C20.592-13.884,19.006-14.56,19.006-15.444ZM32.916,4.264V1.274H19.188V.234h13.13V-6.214h-16.8v2.86h13.13v1.04h-13.1V4.264ZM35.048-7.358V-10.27H12.792v2.912ZM-3.146,43.8v-2.86H-16.718v-4.16h-3.666V43.8Zm2.314-8.424v-2.86H-10.14v-3.3h-3.666v3.3h-9.282v2.86Zm-.91-7.54C-5.122,27.78-9.1,25.8-9.828,23.516h6.864v-2.86H-20.852v2.86h6.682c-.6,2.288-3.926,4.238-8.008,4.368l1.4,2.808c3.588-.156,7.514-1.82,8.814-4.446,1.534,2.548,5.512,4.29,8.762,4.472ZM17.03,39.974c0,1.014-2.054,1.612-5.122,1.612-2.99,0-5.044-.6-5.044-1.612,0-1.118,2.054-1.716,5.044-1.716C14.976,38.258,17.03,38.856,17.03,39.974ZM22.048,27.52c-3.094-.026-6.682-1.768-7.748-3.848h6.786v-2.86H2.99v2.86H9.568c-.884,2.08-3.952,3.744-7.774,3.9.468.91.936,1.872,1.43,2.808,3.562-.182,7.436-1.82,8.71-4.446,1.534,2.548,5.46,4.264,8.684,4.446Zm1.04,6.552v-2.86H.832v2.86h9.282V35.45c-4.446.338-7.02,2.028-7.02,4.5,0,2.678,3.224,4.472,8.84,4.472,5.538,0,8.866-1.794,8.866-4.472,0-2.444-2.574-4.134-6.994-4.5V34.072Z" transform="translate(838 762)" fill="#fff"/>
    <path id="패스_1637" data-name="패스 1637" d="M-14.846-15.444V-18.33H-33.1v2.886Zm2.054,16.77v-2.86H-22.1v-4.42h7.176v-2.86H-18.33l.936-5.252-3.64-.39-.546,5.642h-4.654l-.494-5.668-3.614.338.78,5.33h-3.484v2.86h7.306v4.42h-9.308v2.86ZM0-10.27a16.707,16.707,0,0,0,2.34-.13v1.664H-2.444v-1.69A17.834,17.834,0,0,0,0-10.27ZM4.836-.26c0,1.014-1.924,1.742-4.862,1.742-2.886,0-4.81-.728-4.81-1.742,0-1.118,1.924-1.82,4.81-1.82C2.912-2.08,4.836-1.378,4.836-.26Zm-9.75-14.69c0-1.144,1.872-1.976,4.914-1.976s4.94.832,4.94,1.976c0,1.2-1.872,2-4.94,2C-3.042-12.948-4.914-13.754-4.914-14.95ZM8.58-.312C8.58-3.12,5.356-4.94-.026-4.94S-8.58-3.12-8.58-.312c0,2.782,3.172,4.628,8.606,4.628C5.356,4.316,8.58,2.47,8.58-.312ZM-8.762-14.976a4.007,4.007,0,0,0,2.6,3.51v2.73h-4.966v2.86H11.128v-2.86H5.98v-2.626c1.794-.858,2.808-2.132,2.808-3.614,0-2.7-3.354-4.68-8.788-4.68C-5.46-19.656-8.762-17.68-8.762-14.976ZM33.28-5.694v-14.56H29.562v5.824h-3.25v2.912h3.25v5.824ZM16.458-4.68v2.938h13.13V4.42h3.666v-9.1Zm-2.7-11.336h4.628c-.156,3.536-2.262,5.98-5.772,7.2l1.846,2.886c2.366-.754,5.278-3.146,5.876-5.33a10.544,10.544,0,0,0,5.434,4.836l2-2.886c-2.938-.988-5.3-3.172-5.564-6.708h4.55V-18.98h-13ZM-26.52,34.2V19.746h-3.718V34.2Zm-16.77,1.066v2.86h13.13V44.42h3.666V35.268Zm-2.7-11.076h4.862c-.208,3.484-2.444,5.928-5.928,7.124l1.846,2.86c2.366-.728,5.408-3.12,6.006-5.3a10.641,10.641,0,0,0,5.564,4.81l1.976-2.86c-2.886-.988-5.356-3.146-5.668-6.63h4.6V21.2h-13.26Zm33.462,1.222c0,1.17-1.118,1.924-2.574,1.924s-2.574-.754-2.574-1.924c0-1.144,1.118-1.95,2.574-1.95S-12.532,24.27-12.532,25.414Zm2.314,11.362h4.472v1.95h3.64V19.746h-3.64V34.254h-4.472ZM-8.84,25.414c0-2.73-2.548-4.654-6.266-4.654s-6.24,1.924-6.24,4.68c0,2.73,2.522,4.6,6.24,4.6S-8.84,28.17-8.84,25.414Zm-4.654,12.558V33.6c2.288-.156,4.524-.338,6.37-.624-.078-.936-.1-1.872-.182-2.808a140.549,140.549,0,0,1-16.094.806l.442,2.912c1.612,0,3.666-.026,5.824-.1v2.808H-20.2v7.2H-1.794v-2.86H-16.51V37.972Zm34.97,1.3c0-3.12-3.146-5.174-8.5-5.174C7.722,34.1,4.6,36.152,4.6,39.272s3.12,5.122,8.372,5.122C18.33,44.394,21.476,42.392,21.476,39.272ZM1.9,21.306V24.3H9.542c-.468,3.12-4.394,6.266-8.866,7.176l1.4,2.886c6.942-1.872,11.362-6.266,11.544-13.052ZM21.32,33.63V19.746H17.6v3.9h-3.77v2.808H17.6v2.158H13.624V31.42H17.6v2.21Zm-3.64,5.642c0,1.378-1.664,2.236-4.706,2.236-2.886,0-4.576-.858-4.576-2.236s1.69-2.262,4.576-2.262C16.016,37.01,17.68,37.894,17.68,39.272Zm10.634-16.3h7.41V20.188h-7.41Zm6.006,8.476c0,.884-.962,1.638-2.314,1.638s-2.288-.754-2.288-1.638c0-.858.936-1.664,2.288-1.664S34.32,30.588,34.32,31.446Zm3.614,0c0-2.262-2.418-4.16-5.928-4.16-3.562,0-5.98,1.9-5.98,4.16,0,2.314,2.444,4.16,5.98,4.16C35.516,35.606,37.934,33.76,37.934,31.446Zm1.17-4.654V23.984H24.752v2.808Zm6.11,8.658v-15.7H41.522V27.52h-2.99v3.12h2.99v4.81Zm-3.666,5.9h-9.62V39.194h9.62Zm3.666,2.808V36.412H28.236V44.16Z" transform="translate(720 553)" fill="#fff"/>
    <path id="패스_1640" data-name="패스 1640" d="M-15.73-20.254h-3.64V4.394h3.64V-8.06h3.406v-2.99H-15.73ZM-30.524-4.212V-15.08H-22.8v-2.964H-34.138v16.9h2.158a71,71,0,0,0,11.362-.832l-.364-2.964a53.065,53.065,0,0,1-8.892.728Zm23.14-8.762a2.75,2.75,0,0,1,2.912-2.834,2.8,2.8,0,0,1,2.99,2.834,2.738,2.738,0,0,1-2.99,2.808A2.716,2.716,0,0,1-7.384-12.974ZM-10.92-13c0,3.458,2.782,5.85,6.448,5.85,3.692,0,6.5-2.392,6.5-5.85,0-3.432-2.808-5.772-6.5-5.772C-8.112-18.772-10.92-16.432-10.92-13ZM-.182-2.86c3.172,0,4.94.858,4.94,2.106S2.99,1.326-.182,1.326C-3.276,1.326-5.1.494-5.1-.754-5.1-2.054-3.276-2.86-.182-2.86ZM8.45-.754c0-3.094-3.25-5.018-8.632-5.018s-8.58,1.924-8.58,5.018c0,3.042,3.2,4.966,8.58,4.966S8.45,2.288,8.45-.754Zm2.73-13.13v-2.99H8.242v-3.38H4.576V-5.772H8.242V-8.814H11.18v-2.964H8.242v-2.106Zm6.344,5.9a2.189,2.189,0,0,1,2.314-2,2.224,2.224,0,0,1,2.366,2,2.151,2.151,0,0,1-2.366,1.924A2.116,2.116,0,0,1,17.524-7.982ZM32.656,3.978V1.066H19.448v-3.64H15.7V3.978Zm-.494-24.232h-3.64V-1.69h3.64V-8.97h3.3v-2.99h-3.3Zm-15.99,3.38h7.41v-2.678h-7.41Zm9.62,8.892c0-2.6-2.418-4.654-5.954-4.654-3.562,0-5.954,2.054-5.954,4.654,0,2.626,2.418,4.628,5.954,4.628S25.792-5.356,25.792-7.982Zm1.2-5.07V-15.86H12.61v2.808ZM-34.528,26.116c0,1.482-1.95,2.678-4.992,2.678-3.094,0-5.044-1.2-5.044-2.678,0-1.43,1.95-2.626,5.044-2.626C-36.478,23.49-34.528,24.686-34.528,26.116Zm-7.436,18.252V36.282h4.784v8.086h3.64V36.282h5.148V33.4H-50.648v2.886h4.966v8.086ZM-30.68,26.116c0-3.25-3.51-5.486-8.84-5.486s-8.892,2.236-8.892,5.486c0,3.328,3.562,5.538,8.892,5.538S-30.68,29.444-30.68,26.116ZM-6.24,44.394V19.746H-9.906v8.372h-3.848v3.094h3.848V44.394Zm-5.434-8.034c-3.848-2.08-5.85-5.538-5.85-10.894V25.05h4.758V22.034h-13.26V25.05h4.732v.572c0,5.356-1.742,9-5.954,11.466L-25.09,39.9a13.518,13.518,0,0,0,5.746-7.072c.78,2.392,3.692,5.33,5.642,6.448Zm36.79,2.912c0-3.12-3.146-5.174-8.5-5.174-5.252,0-8.372,2.054-8.372,5.174s3.12,5.122,8.372,5.122C21.97,44.394,25.116,42.392,25.116,39.272ZM5.538,21.306V24.3h7.644c-.468,3.12-4.394,6.266-8.866,7.176l1.4,2.886c6.942-1.872,11.362-6.266,11.544-13.052ZM24.96,33.63V19.746H21.242v3.9h-3.77v2.808h3.77v2.158H17.264V31.42h3.978v2.21Zm-3.64,5.642c0,1.378-1.664,2.236-4.706,2.236-2.886,0-4.576-.858-4.576-2.236s1.69-2.262,4.576-2.262C19.656,37.01,21.32,37.894,21.32,39.272Zm10.634-16.3h7.41V20.188h-7.41Zm6.006,8.476c0,.884-.962,1.638-2.314,1.638s-2.288-.754-2.288-1.638c0-.858.936-1.664,2.288-1.664S37.96,30.588,37.96,31.446Zm3.614,0c0-2.262-2.418-4.16-5.928-4.16-3.562,0-5.98,1.9-5.98,4.16,0,2.314,2.444,4.16,5.98,4.16C39.156,35.606,41.574,33.76,41.574,31.446Zm1.17-4.654V23.984H28.392v2.808Zm6.11,8.658v-15.7H45.162V27.52h-2.99v3.12h2.99v4.81Zm-3.666,5.9h-9.62V39.194h9.62Zm3.666,2.808V36.412H31.876V44.16Z" transform="translate(1203 553)" fill="#fff"/>
    <circle id="타원_19" data-name="타원 19" cx="132" cy="132" r="132" transform="translate(828 433)" fill="#fff"/>
    <g id="그룹_1333" data-name="그룹 1333" transform="translate(-1 -1737)">
      <path id="패스_1644" data-name="패스 1644" d="M-73.948-5.662h3.5a7.6,7.6,0,0,0,5.415-1.976,7.587,7.587,0,0,0,2.109-5.814A7.64,7.64,0,0,0-65.037-19.3a7.6,7.6,0,0,0-5.415-1.976h-3.5ZM-70.224,0h-9.728V-26.942h9.766a13.394,13.394,0,0,1,9.823,3.648q3.705,3.648,3.705,9.842t-3.705,9.823A13.484,13.484,0,0,1-70.224,0Zm34.96,0h-17.1V-26.942H-35.3v5.662H-46.36v5.13h10.032v5.282H-46.36V-5.7h11.1Zm22.686,0H-30.21V-26.942h6v21.2h11.628Zm9.956,0H-8.7V-26.942h6.08Zm30.7,0H23.218l-.38-2.736A7.512,7.512,0,0,1,19.912-.38a10.438,10.438,0,0,1-4.636.95,13.257,13.257,0,0,1-9.709-3.9A13.628,13.628,0,0,1,1.634-13.452,13.437,13.437,0,0,1,5.719-23.579a13.8,13.8,0,0,1,9.937-3.933q5.244,0,8.322,2.47A12.1,12.1,0,0,1,28.12-19.19l-5.776,2.014a6.46,6.46,0,0,0-2.071-3.211,6.62,6.62,0,0,0-4.617-1.5,8.079,8.079,0,0,0-5.529,2.147,7.978,7.978,0,0,0-2.413,6.289,8.38,8.38,0,0,0,2.318,6.289A7.943,7.943,0,0,0,15.808-4.9a6.926,6.926,0,0,0,4.636-1.425A5.611,5.611,0,0,0,22.458-9.31H14.364V-14.4H28.082ZM55.936,0H49.894V-10.716H39.14V0h-6V-26.942h6v10.564H49.894V-26.942h6.042Zm26.22-21.2H73.834V0h-6V-21.2H59.546v-5.738h22.61ZM-80.2,48H-97.3V21.058h17.062V26.72H-91.3v5.13h10.032v5.282H-91.3V42.3h11.1Zm15.808-7.98,6.422-18.962h6.384L-61.427,48h-6.194L-77.5,21.058h6.612ZM-31.179,48h-17.1V21.058h17.062V26.72H-42.275v5.13h10.032v5.282H-42.275V42.3h11.1Zm18.012,0-4.826-10.032h-2.128V48h-6V21.058h10.678A8.593,8.593,0,0,1-9.12,23.452a8.156,8.156,0,0,1,2.413,6.042,8,8,0,0,1-1.406,4.731,7.76,7.76,0,0,1-3.914,2.869L-6.555,48Zm-6.954-15.2h3.534a4.051,4.051,0,0,0,2.812-.893,3.046,3.046,0,0,0,.988-2.375,3.032,3.032,0,0,0-.988-2.394,4.108,4.108,0,0,0-2.812-.874h-3.534ZM4.161,36.752-5.187,21.058h7.03l5.51,9.994,5.586-9.994h6.688L10.165,36.752V48h-6Zm23.864-8.284a7.717,7.717,0,0,0-2.318,6.042,7.684,7.684,0,0,0,2.337,6.042,8.134,8.134,0,0,0,10.887,0,7.717,7.717,0,0,0,2.318-6.042A7.594,7.594,0,0,0,33.5,26.34,7.913,7.913,0,0,0,28.025,28.468Zm-8.55,6.08A13.406,13.406,0,0,1,23.56,24.383,13.868,13.868,0,0,1,33.5,20.488,13.766,13.766,0,0,1,43.415,24.4a13.454,13.454,0,0,1,4.066,10.146,13.392,13.392,0,0,1-4.066,10.127,13.8,13.8,0,0,1-9.918,3.9,13.868,13.868,0,0,1-9.937-3.9A13.36,13.36,0,0,1,19.475,34.548ZM75.183,48H68.837l-11.1-17.708V48H51.775V21.058h7.3L69.179,37.436V21.058h6ZM98.1,48H81V21.058H98.059V26.72H87v5.13H97.033v5.282H87V42.3H98.1Z" transform="translate(961 2274)" fill="#111"/>
      <path id="패스_1641" data-name="패스 1641" d="M-59.148-6.174h-7.686v-4.932h7.686ZM-55.3.882V-.684h-6.75V-4.608h4.86v-8.064H-68.8v8.064h4.788V-.684h-6.7V.882Zm9.81,2.106v-5.76h6.75V-4.356H-54.144v1.584h6.7v5.76ZM-40.518-6.5V-8.064h-9.7v-3.528H-40.7v-1.584H-52.182V-6.5Zm16.65-.72v-1.44h-9.72V-9.72h9.342v-3.852h-11.34v1.44h9.378v1.08H-35.55v3.834Zm.18,10.134v-1.4H-33.66V.342h9.522V-3.6H-35.676v1.422H-26.1v1.152h-9.522V2.916Zm1.512-7.632V-6.192H-37.584v1.476Zm13.986-5c0,1.1-.918,1.872-2.358,1.872-1.368,0-2.286-.774-2.286-1.872a2.057,2.057,0,0,1,2.286-1.944A2.093,2.093,0,0,1-8.19-9.72ZM-9.432,2.538V-3.4c1.764-.09,3.636-.216,4.932-.4l-.144-1.494c-1.584.18-3.42.288-5.778.4-1.944.09-3.852.09-5.85.09l.306,1.62c1.368,0,2.88-.036,4.554-.108V2.538Zm7.578-16.56H-3.816V3.042h1.962Zm-4.392,4.3c0-1.908-1.674-3.528-4.3-3.528-2.574,0-4.248,1.62-4.248,3.528,0,1.872,1.674,3.492,4.248,3.492S-6.246-7.848-6.246-9.72ZM14.328,2.592V1.008H4.878V-2H2.916v4.59Zm-.5-16.614H11.862V-1.4h1.962V-7.038h2.52V-8.676h-2.52ZM2.916-12.06H7.9v-1.566H2.916ZM7.542-5.832c0,.918-.972,1.44-2.124,1.44-1.206,0-2.16-.522-2.16-1.44s.954-1.476,2.16-1.476C6.57-7.308,7.542-6.75,7.542-5.832Zm1.872,0c0-1.764-1.71-2.97-4-2.97C3.1-8.8,1.386-7.6,1.386-5.832c0,1.782,1.728,2.952,4.032,2.952C7.7-2.88,9.414-4.05,9.414-5.832Zm.9-3.636v-1.548H.45v1.548Zm27.27,4.446V-6.606H22.176v1.584Zm-.846-4.032c-2.3-.126-4.968-1.026-5.652-2.79h4.932v-1.548H23.742v1.548h4.986c-.612,1.764-3.042,2.664-5.67,2.826L23.9-7.506C26.622-7.812,29-8.928,29.9-10.566c.972,1.6,3.33,2.754,5.976,3.06ZM36.2,2.934V1.368H26.064V.234H35.55v-4.1H24.1v1.548h9.486V-1.17H24.1v4.1Zm16.6.108V-14.022H50.832v6.75H47.358v1.638h3.474V3.042ZM39.474-12.222v1.62h5.778A11.478,11.478,0,0,1,38.52-1.584L39.744-.09c4.914-2.682,7.488-6.84,7.614-12.132ZM66.8,1.26H59.22V-1.458H66.8Zm.108-11.844c0,1.062-1.512,1.71-3.906,1.71-2.43,0-3.888-.648-3.888-1.71,0-1.08,1.458-1.71,3.888-1.71C65.448-12.294,66.906-11.664,66.906-10.584Zm2.016,0c0-1.926-2.142-3.24-5.922-3.24-3.762,0-5.9,1.314-5.9,3.24s2.142,3.24,5.922,3.24C66.78-7.344,68.922-8.658,68.922-10.584Zm-.18,13.41v-5.8H63.954V-4.662H70.7V-6.246H55.3v1.584h6.7V-2.97H57.258v5.8Z" transform="translate(961 2358)" fill="#111"/>
    </g>
    <g id="그룹_1426" data-name="그룹 1426" transform="translate(17 -1779)">
      <path id="패스_1658" data-name="패스 1658" d="M-44.4,0V-11.344h-2.608L-50.64-2.688l-3.68-8.656h-2.56V0h1.872V-8.32L-51.5,0h1.664L-46.3-8.352V0Zm4-5.68a3.78,3.78,0,0,1,3.792-4.1A3.783,3.783,0,0,1-32.8-5.68a3.783,3.783,0,0,1-3.808,4.1A3.78,3.78,0,0,1-40.4-5.68Zm-1.968,0A5.683,5.683,0,0,0-36.608.24a5.7,5.7,0,0,0,5.776-5.92,5.691,5.691,0,0,0-5.776-5.9A5.679,5.679,0,0,0-42.368-5.68ZM-23.072,0H-20.9l-2.56-4.672A3.2,3.2,0,0,0-20.9-7.9a3.348,3.348,0,0,0-3.552-3.44H-28.8V0h1.936V-4.48h1.408Zm-3.792-6.176V-9.648H-24.8A1.742,1.742,0,0,1-22.848-7.9,1.739,1.739,0,0,1-24.8-6.176ZM-11.84,0V-1.792h-5.088V-4.8h4.608V-6.544h-4.608V-9.552h5.088v-1.792h-7.008V0Zm8.192-1.76V-9.584h2.032c1.968,0,3.584,1.28,3.584,3.936,0,2.624-1.632,3.888-3.6,3.888ZM-1.568,0A5.285,5.285,0,0,0,3.968-5.648a5.3,5.3,0,0,0-5.52-5.7H-5.568V0Zm9.5,0V-11.344H5.984V0ZM14.7-2.512l-3.168-8.832H9.456L13.68,0h1.952L19.92-11.344H17.888ZM28.448,0V-1.792H23.36V-4.8h4.608V-6.544H23.36V-9.552h5.088v-1.792H21.44V0ZM36.48,0h2.176L36.1-4.672A3.2,3.2,0,0,0,38.656-7.9a3.348,3.348,0,0,0-3.552-3.44H30.752V0h1.936V-4.48H34.1ZM32.688-6.176V-9.648h2.064A1.742,1.742,0,0,1,36.7-7.9a1.739,1.739,0,0,1-1.952,1.728ZM48.16-8.688a3.665,3.665,0,0,0-3.968-2.9,3.7,3.7,0,0,0-3.856,3.472,3.222,3.222,0,0,0,2.88,3.184l1.6.336c.976.208,1.52.8,1.52,1.536,0,.88-.7,1.568-2.064,1.568A2.438,2.438,0,0,1,41.68-3.76l-1.792.512C40.064-1.616,41.392.24,44.272.24c2.592,0,4.016-1.68,4.016-3.44,0-1.6-1.072-2.864-3.072-3.264L43.584-6.8a1.47,1.47,0,0,1-1.328-1.456,1.792,1.792,0,0,1,1.952-1.632,2.094,2.094,0,0,1,2.224,1.744ZM57.3,0V-1.792H52.208V-4.8h4.608V-6.544H52.208V-9.552H57.3v-1.792H50.288V0ZM-58.488,18h2.1L-60.808,6.656h-2.224L-67.448,18h2.032l1.056-2.848h4.8ZM-61.96,8.736l1.728,4.64h-3.456ZM-45.352,18V6.656h-1.92V14.7l-5.152-8.048h-2.448V18h1.92V9.408l5.6,8.592Zm4.64-1.76V8.416h2.032c1.968,0,3.584,1.28,3.584,3.936,0,2.624-1.632,3.888-3.6,3.888Zm2.08,1.76A5.285,5.285,0,0,0-33.1,12.352a5.3,5.3,0,0,0-5.52-5.7h-4.016V18Zm19.28,0h2.1L-21.672,6.656H-23.9L-28.312,18h2.032l1.056-2.848h4.8Zm-3.472-9.264,1.728,4.64h-3.456Zm11.648,9.5A5.09,5.09,0,0,0-6.04,14.48L-7.8,13.9a3.386,3.386,0,0,1-3.376,2.5,3.757,3.757,0,0,1-3.76-4.064,3.768,3.768,0,0,1,3.744-4.112A3.147,3.147,0,0,1-7.9,10.7l1.808-.608a4.941,4.941,0,0,0-5.1-3.68,5.683,5.683,0,0,0-5.712,5.92A5.618,5.618,0,0,0-11.176,18.24Zm12,0A5.09,5.09,0,0,0,5.96,14.48L4.2,13.9A3.386,3.386,0,0,1,.824,16.4a3.757,3.757,0,0,1-3.76-4.064A3.768,3.768,0,0,1,.808,8.224,3.147,3.147,0,0,1,4.1,10.7L5.912,10.1a4.941,4.941,0,0,0-5.1-3.68A5.683,5.683,0,0,0-4.9,12.336,5.618,5.618,0,0,0,.824,18.24ZM14.92,18V16.208H9.832V13.2H14.44V11.456H9.832V8.448H14.92V6.656H7.912V18Zm9.76-8.688a3.664,3.664,0,0,0-3.968-2.9,3.7,3.7,0,0,0-3.856,3.472,3.222,3.222,0,0,0,2.88,3.184l1.6.336c.976.208,1.52.8,1.52,1.536,0,.88-.7,1.568-2.064,1.568A2.438,2.438,0,0,1,18.2,14.24l-1.792.512c.176,1.632,1.5,3.488,4.384,3.488,2.592,0,4.016-1.68,4.016-3.44,0-1.6-1.072-2.864-3.072-3.264L20.1,11.2a1.47,1.47,0,0,1-1.328-1.456,1.792,1.792,0,0,1,1.952-1.632,2.094,2.094,0,0,1,2.224,1.744Zm9.584,0a3.665,3.665,0,0,0-3.968-2.9A3.7,3.7,0,0,0,26.44,9.888a3.222,3.222,0,0,0,2.88,3.184l1.6.336c.976.208,1.52.8,1.52,1.536,0,.88-.7,1.568-2.064,1.568a2.438,2.438,0,0,1-2.592-2.272l-1.792.512c.176,1.632,1.5,3.488,4.384,3.488,2.592,0,4.016-1.68,4.016-3.44,0-1.6-1.072-2.864-3.072-3.264L29.688,11.2A1.47,1.47,0,0,1,28.36,9.744a1.792,1.792,0,0,1,1.952-1.632,2.094,2.094,0,0,1,2.224,1.744ZM38.344,18V6.656H36.392V18Zm2.72-11.344V18h4.192c2.112,0,3.52-1.312,3.52-3.136a2.716,2.716,0,0,0-2.032-2.7,2.526,2.526,0,0,0,1.68-2.448c0-1.776-1.28-3.056-3.456-3.056Zm1.9,4.8V8.288h1.7c1.168,0,1.84.624,1.84,1.584a1.584,1.584,0,0,1-1.792,1.584Zm0,4.912v-3.3h2.016a1.632,1.632,0,0,1,1.84,1.664c0,1.008-.752,1.632-1.9,1.632ZM57.9,18V16.176H52.7V6.656h-1.92V18Zm8.768,0V16.208H61.576V13.2h4.608V11.456H61.576V8.448h5.088V6.656H59.656V18ZM-37.44,36.24A5.09,5.09,0,0,0-32.3,32.48l-1.76-.576a3.386,3.386,0,0,1-3.376,2.5,3.757,3.757,0,0,1-3.76-4.064,3.768,3.768,0,0,1,3.744-4.112,3.147,3.147,0,0,1,3.3,2.48l1.808-.608a4.941,4.941,0,0,0-5.1-3.68,5.683,5.683,0,0,0-5.712,5.92A5.618,5.618,0,0,0-37.44,36.24Zm8.24-5.92a3.78,3.78,0,0,1,3.792-4.1,3.783,3.783,0,0,1,3.808,4.1,3.783,3.783,0,0,1-3.808,4.1A3.78,3.78,0,0,1-29.2,30.32Zm-1.968,0a5.683,5.683,0,0,0,5.76,5.92,5.7,5.7,0,0,0,5.776-5.92,5.691,5.691,0,0,0-5.776-5.9A5.679,5.679,0,0,0-31.168,30.32ZM-8.08,36V24.656H-10V32.7l-5.152-8.048H-17.6V36h1.92V27.408L-10.08,36ZM2.784,26.464V24.656h-9.3v1.808h3.68V36h1.92V26.464ZM11.36,36V34.208H6.272V31.2H10.88V29.456H6.272V26.448H11.36V24.656H4.352V36Zm11.824,0V24.656h-1.92V32.7l-5.152-8.048H13.664V36h1.92V27.408L21.184,36Zm10.864-9.536V24.656h-9.3v1.808h3.68V36h1.92V26.464Zm9.024.848a3.664,3.664,0,0,0-3.968-2.9,3.7,3.7,0,0,0-3.856,3.472,3.222,3.222,0,0,0,2.88,3.184l1.6.336c.976.208,1.52.8,1.52,1.536,0,.88-.7,1.568-2.064,1.568a2.438,2.438,0,0,1-2.592-2.272l-1.792.512c.176,1.632,1.5,3.488,4.384,3.488,2.592,0,4.016-1.68,4.016-3.44,0-1.6-1.072-2.864-3.072-3.264L38.5,29.2a1.47,1.47,0,0,1-1.328-1.456,1.792,1.792,0,0,1,1.952-1.632,2.094,2.094,0,0,1,2.224,1.744Z" transform="translate(1443 2393.864)" fill="#111" opacity="0.4"/>
      <path id="패스_1645" data-name="패스 1645" d="M-39.264-23.616v3.584H-23.2c0,.544.032,1.248,0,2.08l-17.184.256.608,3.712,16.416-.672a31.717,31.717,0,0,1-.512,3.392l4.32.352a60.546,60.546,0,0,0,.864-12.7Zm23.52,17.728v-3.52H-28.416v-3.68h-4.512v3.68H-43.136v3.52ZM-18.56,4.64V1.12H-35.232v-5.5h-4.544V4.64ZM-8.384-12.48h6.016v-3.488H-8.384v-2.624h6.912v-3.552h-11.2V-6.4c1.056.064,2.112.16,3.136.16A53.792,53.792,0,0,0-.224-7.008C-.352-8.16-.448-9.248-.544-10.4a39.829,39.829,0,0,1-6.4.544c-.576,0-1.056-.032-1.44-.064ZM12.7,4.768V1.216H-4.352V-4.736H-8.9v9.5Zm-6.432-8V-24.384H2.08v7.744H-1.248v3.392H2.08V-3.232Zm5.856.736V-24.928H7.872V-2.5ZM24.416-20.288H34.688v-3.52H24.416ZM43.136,1.664v-3.52H15.744v3.52Zm-.8-10.4c-4.672-.32-9.5-2.336-10.336-6.112h8.672v-3.584H18.208v3.584h8.64c-.8,3.776-5.536,5.6-10.208,6.112l1.888,3.712c4.64-.64,8.992-2.784,10.912-6.144C31.36-7.776,35.808-5.7,40.608-5.024ZM-34.08,16.672h-4.48V47.008h4.48V31.68h4.192V28H-34.08ZM-52.288,36.416V23.04h9.5V19.392H-56.736v20.8h2.656A87.388,87.388,0,0,0-40.1,39.168l-.448-3.648a65.311,65.311,0,0,1-10.944.9Zm28.48-10.784a3.385,3.385,0,0,1,3.584-3.488,3.447,3.447,0,0,1,3.68,3.488,3.37,3.37,0,0,1-3.68,3.456A3.343,3.343,0,0,1-23.808,25.632ZM-28.16,25.6c0,4.256,3.424,7.2,7.936,7.2,4.544,0,8-2.944,8-7.2,0-4.224-3.456-7.1-8-7.1C-24.7,18.5-28.16,21.376-28.16,25.6Zm13.216,12.48c3.9,0,6.08,1.056,6.08,2.592s-2.176,2.56-6.08,2.56c-3.808,0-6.048-1.024-6.048-2.56C-20.992,39.072-18.752,38.08-14.944,38.08ZM-4.32,40.672c0-3.808-4-6.176-10.624-6.176S-25.5,36.864-25.5,40.672c0,3.744,3.936,6.112,10.56,6.112S-4.32,44.416-4.32,40.672Zm3.36-16.16v-3.68H-4.576v-4.16H-9.088V34.5h4.512V30.752H-.96V27.1H-4.576V24.512ZM15.68,38.368c3.936,0,6.176.9,6.176,2.4,0,1.472-2.24,2.4-6.176,2.4-3.872,0-6.112-.928-6.112-2.4C9.568,39.264,11.808,38.368,15.68,38.368Zm10.752,2.4c0-3.712-4.064-6.016-10.752-6.016s-10.688,2.3-10.688,6.016c0,3.68,4,5.984,10.688,5.984S26.432,44.448,26.432,40.768ZM19.1,30.08c-3.808-1.312-6.592-4.128-6.592-8.992V18.624H7.9v2.72c0,4.448-2.624,7.936-7.168,9.5L3.04,34.5c2.848-.928,6.336-3.936,7.232-6.752A12.39,12.39,0,0,0,16.7,33.6ZM26.24,34.5V16.672H21.664v6.24H16.992v3.616h4.672V34.5ZM58.4,32.448v-3.68H54.464v-12.1H50.016V47.008h4.448V32.448Zm-26.816-12.8v3.68H43.3a57,57,0,0,1-.7,9.5l4.192.416a71.572,71.572,0,0,0,1.024-13.6ZM48.576,36.7c-2.112.256-5.28.512-8.608.7V29.376H35.68v8.192c-1.888.064-3.328.032-5.92.032l.448,3.648c2.272,0,4.448-.064,7.616-.16,3.744-.192,8.288-.608,11.1-.992ZM-22.5,84.7H-33.888v-2.56H-22.5Zm4.576-10.272V58.272H-22.5V64.96h-4.032v3.552H-22.5v5.92ZM-42.24,63.2h5.824c-.224,4.352-2.816,7.36-7.136,8.864l2.272,3.52c2.912-.9,6.5-3.84,7.232-6.528a12.977,12.977,0,0,0,6.688,5.952l2.464-3.552c-3.616-1.216-6.56-3.872-6.88-8.256h5.536V59.52h-16Zm24.288,25.024V75.744H-22.5v2.944H-33.888V75.744H-38.4v12.48Zm7.9-28.736V63.1H5.888A37.914,37.914,0,0,1,5.12,71.52H-13.7v3.52H13.7V71.52H9.248a56.675,56.675,0,0,0,1.12-12.032ZM11.04,87.68V84.1H-5.5V77.7h-4.512V87.68ZM30.4,79.968c3.936,0,6.176.9,6.176,2.4,0,1.472-2.24,2.4-6.176,2.4-3.872,0-6.112-.928-6.112-2.4C24.288,80.864,26.528,79.968,30.4,79.968Zm10.752,2.4c0-3.712-4.064-6.016-10.752-6.016s-10.688,2.3-10.688,6.016c0,3.68,4,5.984,10.688,5.984S41.152,86.048,41.152,82.368ZM33.824,71.68c-3.808-1.312-6.592-4.128-6.592-8.992V60.224H22.624v2.72c0,4.448-2.624,7.936-7.168,9.5l2.3,3.648c2.848-.928,6.336-3.936,7.232-6.752A12.39,12.39,0,0,0,31.424,75.2ZM40.96,76.1V58.272H36.384v6.24H31.712v3.616h4.672V76.1Z" transform="translate(1443 2273.928)" fill="#111"/>
    </g>
    <g id="그룹_1425" data-name="그룹 1425" transform="translate(-31 -1777)">
      <path id="패스_1659" data-name="패스 1659" d="M-38.208,0V-11.344H-40.16V0Zm12.24,0V-11.344h-1.92V-3.3l-5.152-8.048h-2.448V0h1.92V-8.592L-27.968,0Zm7.76.24a5.09,5.09,0,0,0,5.136-3.76l-1.76-.576a3.386,3.386,0,0,1-3.376,2.5,3.757,3.757,0,0,1-3.76-4.064,3.768,3.768,0,0,1,3.744-4.112,3.147,3.147,0,0,1,3.3,2.48L-13.12-7.9a4.941,4.941,0,0,0-5.1-3.68,5.683,5.683,0,0,0-5.712,5.92A5.618,5.618,0,0,0-18.208.24ZM-4,0V-1.824H-9.2v-9.52h-1.92V0ZM1.7.24a3.949,3.949,0,0,0,4.24-4.192v-7.392H4.016v7.28A2.185,2.185,0,0,1,1.7-1.584a2.193,2.193,0,0,1-2.32-2.48v-7.28h-1.9v7.392A3.945,3.945,0,0,0,1.7.24ZM15.984-8.688a3.664,3.664,0,0,0-3.968-2.9A3.7,3.7,0,0,0,8.16-8.112a3.222,3.222,0,0,0,2.88,3.184l1.6.336c.976.208,1.52.8,1.52,1.536,0,.88-.7,1.568-2.064,1.568A2.438,2.438,0,0,1,9.5-3.76l-1.792.512C7.888-1.616,9.216.24,12.1.24c2.592,0,4.016-1.68,4.016-3.44,0-1.6-1.072-2.864-3.072-3.264L11.408-6.8A1.47,1.47,0,0,1,10.08-8.256a1.792,1.792,0,0,1,1.952-1.632,2.094,2.094,0,0,1,2.224,1.744ZM20.064,0V-11.344H18.112V0Zm6.768-2.512-3.168-8.832h-2.08L25.808,0H27.76l4.288-11.344H30.016ZM40.576,0V-1.792H35.488V-4.8H40.1V-6.544H35.488V-9.552h5.088v-1.792H33.568V0ZM-39.28,18.24a5.09,5.09,0,0,0,5.136-3.76L-35.9,13.9a3.386,3.386,0,0,1-3.376,2.5,3.757,3.757,0,0,1-3.76-4.064A3.768,3.768,0,0,1-39.3,8.224,3.147,3.147,0,0,1-36,10.7l1.808-.608a4.941,4.941,0,0,0-5.1-3.68,5.683,5.683,0,0,0-5.712,5.92A5.618,5.618,0,0,0-39.28,18.24ZM-24.832,18h2.1L-27.152,6.656h-2.224L-33.792,18h2.032l1.056-2.848h4.8ZM-28.3,8.736l1.728,4.64h-3.456Zm9.008,3.136V8.352h2a1.733,1.733,0,0,1,1.952,1.776A1.718,1.718,0,0,1-17.3,11.872Zm2.288,1.7a3.379,3.379,0,0,0,3.616-3.456,3.388,3.388,0,0,0-3.616-3.456h-4.208V18h1.92V13.568ZM-4.752,18h2.1L-7.072,6.656H-9.3L-13.712,18h2.032l1.056-2.848h4.8ZM-8.224,8.736l1.728,4.64H-9.952Zm7.088-2.08V18H3.056c2.112,0,3.52-1.312,3.52-3.136a2.716,2.716,0,0,0-2.032-2.7,2.526,2.526,0,0,0,1.68-2.448c0-1.776-1.28-3.056-3.456-3.056Zm1.9,4.8V8.288h1.7c1.168,0,1.84.624,1.84,1.584a1.584,1.584,0,0,1-1.792,1.584Zm0,4.912v-3.3H2.784a1.632,1.632,0,0,1,1.84,1.664c0,1.008-.752,1.632-1.9,1.632ZM10.528,18V6.656H8.576V18Zm9.84,0V16.176h-5.2V6.656h-1.92V18Zm3.712,0V6.656H22.128V18ZM34.944,8.464V6.656h-9.3V8.464h3.68V18h1.92V8.464ZM39.6,13.2V18h1.92V13.2l4-6.544H43.36l-2.736,4.752L37.9,6.656H35.632Z" transform="translate(481 2378.816)" fill="#111" opacity="0.4"/>
      <path id="패스_1660" data-name="패스 1660" d="M-3.552-19.008V-22.56H-26.016v3.552Zm2.528,20.64v-3.52H-12.48v-5.44h8.832v-3.52H-7.84l1.152-6.464-4.48-.48-.672,6.944h-5.728l-.608-6.976-4.448.416.96,6.56h-4.288v3.52h8.992v5.44H-28.416v3.52ZM14.72-12.64a20.563,20.563,0,0,0,2.88-.16v2.048H11.712v-2.08A21.95,21.95,0,0,0,14.72-12.64ZM20.672-.32c0,1.248-2.368,2.144-5.984,2.144-3.552,0-5.92-.9-5.92-2.144,0-1.376,2.368-2.24,5.92-2.24C18.3-2.56,20.672-1.7,20.672-.32Zm-12-18.08c0-1.408,2.3-2.432,6.048-2.432S20.8-19.808,20.8-18.4c0,1.472-2.3,2.464-6.08,2.464C10.976-15.936,8.672-16.928,8.672-18.4ZM25.28-.384c0-3.456-3.968-5.7-10.592-5.7S4.16-3.84,4.16-.384c0,3.424,3.9,5.7,10.592,5.7C21.312,5.312,25.28,3.04,25.28-.384ZM3.936-18.432c0,1.76,1.12,3.3,3.2,4.32v3.36H1.024v3.52H28.416v-3.52H22.08v-3.232c2.208-1.056,3.456-2.624,3.456-4.448,0-3.328-4.128-5.76-10.816-5.76C8-24.192,3.936-21.76,3.936-18.432ZM-23.936,25.984a3.385,3.385,0,0,1,3.552-3.648A3.443,3.443,0,0,1-16.8,25.984,3.383,3.383,0,0,1-20.384,29.6,3.359,3.359,0,0,1-23.936,25.984Zm-4.224,0c0,4.416,3.328,7.488,7.776,7.488,4.416,0,7.808-3.072,7.808-7.488s-3.392-7.392-7.808-7.392S-28.16,21.568-28.16,25.984Zm16.512,4.96h3.872V34.4H-3.2V16.672H-7.776v3.712h-3.872l.128,3.808h3.744V27.1H-11.52Zm-13.024,4.672v3.52h16.9v7.9H-3.2V35.616Zm39.3,3.1c3.872,0,6.016,1.088,6.016,2.4,0,1.344-2.144,2.368-6.016,2.368-3.808,0-6.016-.992-6.016-2.368S10.816,38.72,14.624,38.72ZM28.64,27.232H24.832V24.32H28.64V20.672H24.832v-4H20.288V35.2h4.544V30.88H28.64Zm-10.5,2.592a49.619,49.619,0,0,1-9.5.864c-.768,0-1.472-.032-2.112-.064V27.808h9.056V18.4H2.048v3.552h8.96v2.592H2.016v9.568c1.792.032,3.584.1,5.376.1a59.856,59.856,0,0,0,11.136-.992Zm7.2,11.3c0-3.584-4.032-5.824-10.72-5.824S3.9,37.568,3.9,41.12c0,3.584,4.032,5.824,10.72,5.824S25.344,44.7,25.344,41.12Z" transform="translate(481 2300.192)" fill="#111"/>
    </g>
    <path id="다각형_48" data-name="다각형 48" d="M27.953,1.91a3,3,0,0,1,4.094,0l22.389,20.9A3,3,0,0,1,52.389,28H7.611a3,3,0,0,1-2.047-5.193Z" transform="translate(1360 535) rotate(90)" fill="#111"/>
    <path id="다각형_49" data-name="다각형 49" d="M27.953,1.91a3,3,0,0,1,4.094,0l22.389,20.9A3,3,0,0,1,52.389,28H7.611a3,3,0,0,1-2.047-5.193Z" transform="translate(588 535) rotate(90)" fill="#111"/>
  </g>
</svg>
