<svg xmlns="http://www.w3.org/2000/svg" width="121.333" height="24" viewBox="0 0 121.333 24">
    <defs>
        <style>
            .cls-2{fill:#111}
        </style>
    </defs>
    <g id="logo" transform="translate(-73.101 -504.185)">
        <g id="그룹_228" data-name="그룹 228" transform="translate(73.101 504.185)">
            <g id="그룹_2" data-name="그룹 2">
                <g id="그룹_1" data-name="그룹 1">
                    <path id="패스_1" data-name="패스 1" class="cls-2" d="M83.2 510.515a2.725 2.725 0 0 0-3-2.268 2.216 2.216 0 0 0-2.463 1.935c0 .871.541 1.506 1.78 1.729l2.416.46c3.435.639 5.216 2.843 5.216 5.417 0 2.833-2.361 5.708-6.659 5.708-4.988 0-7.134-3.237-7.388-5.779l3.694-.89c.152 1.659 1.271 3.107 3.741 3.107 1.576 0 2.541-.761 2.541-1.88 0-.913-.742-1.577-1.929-1.816l-2.467-.46c-3.062-.583-4.913-2.616-4.913-5.291 0-3.41 3-5.8 6.462-5.8 4.5 0 6.2 2.7 6.58 4.809z" transform="translate(-73.101 -504.332)"/>
                    <path id="패스_2" data-name="패스 2" class="cls-2" d="M95.675 525.364v-12.655h3.686v1.447a4.437 4.437 0 0 1 3.647-1.831 3.923 3.923 0 0 1 3.741 1.988 4.316 4.316 0 0 1 3.909-1.988c2.4 0 4.679 1.4 4.679 4.836v8.2l-3.733-.005v-7.335a1.915 1.915 0 0 0-2.013-2.129 2.061 2.061 0 0 0-2.112 2.165v7.3l-3.812.005v-7.341a1.917 1.917 0 0 0-2.036-2.129 2.057 2.057 0 0 0-2.089 2.181v7.288z" transform="translate(-79.739 -506.576)"/>
                    <path id="패스_3" data-name="패스 3" class="cls-2" d="M128.669 504.185a2.266 2.266 0 1 1-2.243 2.257 2.269 2.269 0 0 1 2.243-2.257m-1.906 6.128h3.874v12.655h-3.874z" transform="translate(-88.781 -504.185)"/>
                    <path id="사각형_1" data-name="사각형 1" class="cls-2" transform="translate(44.28 .353)" d="M0 0h3.874v18.429H0z"/>
                    <path id="패스_4" data-name="패스 4" class="cls-2" d="M156.149 521.721a5.692 5.692 0 0 1-5.838 4.017 6.717 6.717 0 0 1-.275-13.421c3.913 0 6.329 2.422 6.329 6.494a7.7 7.7 0 0 1-.076 1.2H147.5a2.731 2.731 0 0 0 2.87 2.44 2.438 2.438 0 0 0 2.541-1.65zm-3.525-4.2a2.257 2.257 0 0 0-2.533-2.145 2.41 2.41 0 0 0-2.517 2.145z" transform="translate(-93.867 -506.574)"/>
                    <path id="패스_5" data-name="패스 5" class="cls-2" d="M166.624 525.179a2.626 2.626 0 0 0 2.71 2.105c1.937 0 3.133-.936 3.133-3.235v-.581a3.956 3.956 0 0 1-3.384 1.423 6.178 6.178 0 0 1 0-12.341c2.063 0 3.156.9 3.505 1.569v-1.345h3.694v11.073c0 3.638-2.039 6.794-6.76 6.794-3.644 0-5.96-2.236-6.313-4.506zm5.871-6.454a2.711 2.711 0 1 0-5.419 0 2.629 2.629 0 0 0 2.714 2.809 2.6 2.6 0 0 0 2.705-2.809" transform="translate(-99.597 -506.643)"/>
                    <path id="패스_6" data-name="패스 6" class="cls-2" d="M193.8 523.738a3.589 3.589 0 0 1-3.408 1.972c-3.706 0-6.277-2.816-6.277-6.719 0-3.77 2.407-6.674 6.148-6.674a3.642 3.642 0 0 1 3.514 1.836v-1.446h3.741v10.387a21.858 21.858 0 0 0 .1 2.263H193.9a14.48 14.48 0 0 1-.1-1.5zm-2.906-1.354c1.557 0 2.882-1.228 2.882-3.366 0-2.2-1.293-3.338-2.882-3.338-1.643 0-2.889 1.141-2.889 3.338 0 2.087 1.294 3.366 2.889 3.366" transform="translate(-105.745 -506.574)"/>
                    <path id="패스_7" data-name="패스 7" class="cls-2" d="M210.885 511.332h2.46v3.389h-2.46v4.731c0 1.047.561 1.321 1.4 1.321a4.816 4.816 0 0 0 1.012-.128v3.216a4.633 4.633 0 0 1-2.013.353c-2.615 0-4.222-1.553-4.222-4.076v-5.417h-2.228v-3.392h.628a1.857 1.857 0 0 0 1.961-2.064v-1.632h3.461z" transform="translate(-111.837 -505.199)"/>
                    <path id="패스_8" data-name="패스 8" class="cls-2" d="M230.574 521.721a5.679 5.679 0 0 1-5.83 4.017 6.717 6.717 0 0 1-.275-13.421c3.913 0 6.329 2.422 6.329 6.494a10.452 10.452 0 0 1-.071 1.2h-8.807a2.731 2.731 0 0 0 2.87 2.44 2.446 2.446 0 0 0 2.549-1.65zm-3.516-4.2a2.267 2.267 0 0 0-2.541-2.145 2.432 2.432 0 0 0-2.525 2.145z" transform="translate(-115.754 -506.574)"/>
                </g>
            </g>
            <path id="패스_9" data-name="패스 9" class="cls-2" d="M240.286 507.636a2.383 2.383 0 1 1-2.351 2.374 2.373 2.373 0 0 1 2.351-2.374m0 4.293a1.917 1.917 0 1 0-1.84-1.919 1.854 1.854 0 0 0 1.84 1.919m-.3-.634h-.486V508.7h.894a.83.83 0 0 1 .877.813.786.786 0 0 1-.572.758l.587 1.023h-.568l-.538-.968h-.2zm.344-1.4c.29 0 .453-.139.453-.375 0-.253-.163-.394-.453-.394h-.344v.769z" transform="translate(-121.569 -505.199)"/>
        </g>
    </g>
</svg>
